<svg width="29" height="25" viewBox="0 0 29 25" fill="none" xmlns="http://www.w3.org/2000/svg">
<path d="M0.166656 19.966V22.537C0.166656 23.5304 0.922767 24.29 1.91153 24.29H26.3397C27.3285 24.29 28.0846 23.5304 28.0846 22.537V19.966H0.166656ZM16.045 22.7123H12.2063C11.8573 22.7123 11.6246 22.4786 11.6246 22.128C11.6246 21.7774 11.8573 21.5437 12.2063 21.5437H16.045C16.3939 21.5437 16.6266 21.7774 16.6266 22.128C16.6266 22.4786 16.3939 22.7123 16.045 22.7123Z" fill="#E21D55"/>
<path d="M26.7468 2.55299C26.7468 1.55963 25.9907 0.800003 25.002 0.800003H3.24925C2.26049 0.800003 1.50438 1.55963 1.50438 2.55299V18.2714H26.6887V2.55299H26.7468ZM24.4203 15.8757H3.83088V3.13732H24.3622V15.8757H24.4203Z" fill="#E21D55"/>
<path d="M15.4633 12.545C15.5797 12.8372 15.9868 12.8956 16.1031 12.6034L16.8011 11.2595L19.4184 13.889L20.9306 12.3697L18.3133 9.74023L19.651 9.03904C19.9418 8.92217 19.8837 8.51314 19.5929 8.39628L13.8348 6.35113C13.544 6.23426 13.2532 6.52642 13.3695 6.81859L15.4633 12.545Z" fill="#E21D55"/>
</svg>
