<svg width="20" height="32" viewBox="0 0 20 32" fill="none" xmlns="http://www.w3.org/2000/svg">
<path d="M17.7333 0H2C0.866667 0 0 0.866667 0 2V30C0 31.1333 0.866667 32 2 32H17.6667C18.8 32 19.6667 31.1333 19.6667 30V2C19.7333 0.866667 18.8 0 17.7333 0ZM10.2667 1.66667H12.2667C12.6667 1.66667 12.9333 1.93333 12.9333 2.33333C12.9333 2.73333 12.6667 3 12.2667 3H10.2667C9.86667 3 9.6 2.73333 9.6 2.33333C9.6 1.93333 9.93333 1.66667 10.2667 1.66667ZM7.4 1.66667H8.06667C8.46667 1.66667 8.73333 1.93333 8.73333 2.33333C8.73333 2.73333 8.46667 3 8.06667 3H7.4C7 3 6.73333 2.73333 6.73333 2.33333C6.73333 1.93333 7.06667 1.66667 7.4 1.66667ZM10.8667 30.2H8.8C8.4 30.2 8.13333 29.9333 8.13333 29.5333C8.13333 29.1333 8.4 28.8667 8.8 28.8667H10.8667C11.2667 28.8667 11.5333 29.1333 11.5333 29.5333C11.5333 29.9333 11.2667 30.2 10.8667 30.2ZM17.0667 27.0667H2.66667V4.66667H17V27.0667H17.0667Z" fill="#E21D55"/>
</svg>
