<svg width="32" height="32" viewBox="0 0 32 32" fill="none" xmlns="http://www.w3.org/2000/svg">
<path d="M4.12223 17.9642L13.1999 26.9463L15.2897 23.3923L7.71411 15.8964L4.12223 17.9642Z" fill="#E21D55"/>
<path d="M3.73039 27.1402C2.8814 27.5279 1.9671 27.7218 1.0528 27.7864C0.791575 28.5618 0.660961 29.4019 0.726268 30.3065C1.64057 30.3712 2.48956 30.2419 3.27324 29.9834C3.33855 29.0142 3.53447 28.1095 3.92631 27.334C3.861 27.334 3.79569 27.334 3.73039 27.334C3.73039 27.2694 3.73039 27.2048 3.73039 27.1402Z" fill="#E21D55"/>
<path d="M6.47328 22.8107C5.42837 23.3276 4.25284 23.5215 3.01201 23.4569C2.9467 22.2291 3.20793 21.0659 3.66508 20.032C1.37934 21.1952 -0.122722 23.6507 0.00789203 26.494C2.9467 26.6232 5.36306 25.137 6.47328 22.8107Z" fill="#E21D55"/>
<path d="M8.30187 24.62C5.95082 25.7186 4.44876 28.1095 4.57938 31.0174C7.45288 31.1466 9.93455 29.6604 11.0448 27.3341C9.99985 27.851 8.82433 28.0449 7.5835 27.9802C7.51819 26.7525 7.77942 25.5893 8.30187 24.62Z" fill="#E21D55"/>
<path d="M19.8612 3.87717L14.3101 9.36983L5.03653 8.52977L1.9671 11.5669L8.62841 14.9271L8.5631 14.9917L16.1387 22.4876L16.204 22.423L19.6653 29.0788L22.7347 26.0417L21.951 16.8657L27.5021 11.373C31.0287 7.88358 31.0287 4.26489 31.4205 0C27.1103 0.387717 23.4531 0.323097 19.8612 3.87717ZM23.2572 11.89C22.2123 12.9239 20.449 12.9239 19.3387 11.89C18.2938 10.8561 18.2938 9.11135 19.3387 8.01282C20.3837 6.97891 22.1469 6.97891 23.2572 8.01282C24.3674 9.04673 24.3674 10.7915 23.2572 11.89ZM27.1756 6.91429C26.3919 7.68972 25.1511 7.68972 24.3674 6.91429C23.5837 6.13885 23.5837 4.91108 24.3674 4.13565C25.1511 3.36021 26.3919 3.36021 27.1756 4.13565C27.894 4.91108 27.894 6.13885 27.1756 6.91429Z" fill="#E21D55"/>
</svg>
