<svg width="30" height="30" viewBox="0 0 30 30" fill="none" xmlns="http://www.w3.org/2000/svg">
<path d="M20 27.3183H19.5L18.1875 22.6933H11.8125L10.5 27.3183H10C9.375 27.3183 8.8125 27.8117 8.8125 28.49C8.8125 29.1683 9.375 29.6 10 29.6H20C20.625 29.6 21.1875 29.1067 21.1875 28.4283C21.1875 27.75 20.625 27.3183 20 27.3183Z" fill="#E21D55"/>
<path d="M28.125 0H1.875C0.8125 0 0 0.801667 0 1.85V19.61C0 20.6583 0.8125 21.46 1.875 21.46H28.125C29.1875 21.46 30 20.6583 30 19.61V1.85C30 0.801667 29.1875 0 28.125 0ZM15.875 19.9183H14.0625C13.6875 19.9183 13.4375 19.6717 13.4375 19.3017C13.4375 18.9317 13.6875 18.685 14.0625 18.685H15.875C16.25 18.685 16.5 18.9317 16.5 19.3017C16.5 19.6717 16.25 19.9183 15.875 19.9183ZM27.5 17.1433H2.5V2.46667H27.5V17.1433Z" fill="#E21D55"/>
<path d="M6.3125 10.4217C6.375 10.4833 6.375 10.545 6.375 10.6683L6.125 11.9633C6.0625 12.1483 6.3125 12.3333 6.5 12.21L7.625 11.5933C7.6875 11.5317 7.8125 11.5317 7.875 11.5933L9 12.21C9.1875 12.3333 9.4375 12.1483 9.375 11.9633L9.125 10.6683C9.125 10.6067 9.125 10.4833 9.1875 10.4217L10.125 9.49666C10.25 9.37333 10.1875 9.06499 10 9.06499L8.6875 8.87999C8.625 8.87999 8.5 8.81833 8.5 8.75666L7.9375 7.58499C7.8125 7.39999 7.5625 7.39999 7.4375 7.58499L6.875 8.75666C6.8125 8.81833 6.75 8.87999 6.6875 8.87999L5.375 9.06499C5.1875 9.12666 5.0625 9.37333 5.25 9.49666L6.3125 10.4217Z" fill="#E21D55"/>
<path d="M13.5 10.4217C13.5625 10.4833 13.5625 10.545 13.5625 10.6683L13.3125 11.9633C13.25 12.1483 13.5 12.3333 13.6875 12.21L14.8125 11.5933C14.875 11.5317 15 11.5317 15.0625 11.5933L16.1875 12.21C16.375 12.3333 16.625 12.1483 16.5625 11.9633L16.3125 10.6683C16.3125 10.6067 16.3125 10.4833 16.375 10.4217L17.3125 9.49666C17.4375 9.37333 17.375 9.06499 17.1875 9.06499L15.875 8.87999C15.8125 8.87999 15.6875 8.81833 15.6875 8.75666L15.125 7.58499C15 7.39999 14.75 7.39999 14.625 7.58499L14.0625 8.75666C14 8.81833 13.9375 8.87999 13.875 8.87999L12.5625 9.06499C12.375 9.12666 12.25 9.37333 12.4375 9.49666L13.5 10.4217Z" fill="#E21D55"/>
<path d="M20.625 10.4217C20.6875 10.4833 20.6875 10.545 20.6875 10.6683L20.4375 11.9633C20.375 12.1483 20.625 12.3333 20.8125 12.21L21.9375 11.5933C22 11.5317 22.125 11.5317 22.1875 11.5933L23.3125 12.21C23.5 12.3333 23.75 12.1483 23.6875 11.9633L23.4375 10.6683C23.4375 10.6067 23.4375 10.4833 23.5 10.4217L24.4375 9.49666C24.5625 9.37333 24.5 9.06499 24.3125 9.06499L23 8.87999C22.9375 8.87999 22.8125 8.81833 22.8125 8.75666L22.25 7.58499C22.125 7.39999 21.875 7.39999 21.75 7.58499L21.1875 8.75666C21.125 8.81833 21.0625 8.87999 21 8.87999L19.6875 9.06499C19.5 9.12666 19.375 9.37333 19.5625 9.49666L20.625 10.4217Z" fill="#E21D55"/>
</svg>
